M48
;Layer_Color=9474304
;FILE_FORMAT=4:4
METRIC,LZ
;TYPE=PLATED
T01F00S00C0.7112
T02F00S00C0.7500
T03F00S00C0.8000
T04F00S00C0.8500
T05F00S00C0.9000
T06F00S00C1.0200
T07F00S00C1.0600
T08F00S00C1.1000
T09F00S00C1.2400
T10F00S00C1.2700
T11F00S00C1.3000
;TYPE=NON_PLATED
T12F00S00C3.0000
%
T01
X001397Y0010795
X0021209Y0013462
X0044323Y0005207
X007874Y0006477
X0069596Y0053721
X0058801Y0051562
X0056007Y005207
X0033909Y0053086
X0026543Y0048514
X0026289Y0037592
X0023114Y0020955
X0035814Y0014478
X0012573Y0018603
X0011811Y0033909
X0002159Y0045593
X0029464Y0056642
X0041529Y0058674
X0046736Y0054229
X0045085Y0067437
X0036703Y0075184
X0036322Y0079375
X0032131Y0077724
X0065024Y0065151
X0062611Y0062357
T02
X0039878Y0005263
Y0012263
Y0019106
Y0026106
X0039751Y0031044
Y0038044
T03
X0024765Y0005842
Y0013462
T04
X0008128Y0063413
Y0068413
X003175Y0068453
Y0063453
X0055499Y0062437
Y0067437
T05
X0056007Y0010668
X0058547
X0061087
X0063627
X0066167
X0068707
X0071247
X0073787
X0076327
X0078867
X0081407
X0083947
X0086487
X0089027
X0091567
X0091694Y0046863
X0089154
X0086614
X0084074
X0081534
X0078994
X0076454
X0073914
X0071374
X0068834
X0066294
X0063754
X0061214
X0058674
X0056134
X0077216Y0060071
Y0062611
Y0065151
Y0067691
Y0070231
Y0072771
X0099187Y0070231
Y0067691
Y0065151
Y0062611
Y0060071
Y0057531
T06
X0056007Y0015748
X0058547
X0061087
X0063627
X0066167
X0068707
X0071247
X0073787
X0076327
X0078867
X0081407
X0083947
X0086487
X0089027
X0091567
Y0041148
X0089027
X0086487
X0083947
X0081407
X0078867
X0076327
X0073787
X0071247
X0068707
X0066167
X0063627
X0061087
X0058547
X0056007
X0027559Y0077978
X0025019
X0022479
X0019939
T07
X0030353Y0022633
Y0032993
T08
X0019558Y0020932
Y0033932
X0006223Y0033909
Y0020909
T09
X0007239Y0048641
X0009779
X0012319
T10
X0031359Y0048768
X0033909
X0036459
T11
X0006858Y0005969
Y0010969
T12
X0099527Y0016218
Y0040728
X0052577
Y0016218
M30
