M48
;Layer_Color=9474304
;FILE_FORMAT=4:4
METRIC,LZ
;TYPE=PLATED
T01F00S00C0.8000
T02F00S00C0.8500
T03F00S00C1.0000
T04F00S00C1.0200
T05F00S00C1.1000
T06F00S00C1.2700
T07F00S00C1.4000
;TYPE=NON_PLATED
T08F00S00C3.0000
%
T01
X0018201Y0008382
X0023201
X0007747Y0057531
Y0065151
T02
X0018114Y0023495
X0023114
X0080137Y0038862
X0084328
Y0046482
X0029337Y0047752
Y0055372
T03
X001905Y0050673
X002159
X0014968Y0063627
X0031768
T04
X0040046Y0007405
X0042586
X0045126
X0047666
X0050206
X0052746
X0055286
X0057826
X0060366
X0062906
X0065446
X0067986
X0070526
X0073066
X0075606
Y0032805
X0073066
X0070526
X0067986
X0065446
X0062906
X0060366
X0057826
X0055286
X0052746
X0050206
X0047666
X0045126
X0042586
X0040046
X0056515Y0049911
X0059055
X0061595
X0064135
T05
X0006223Y0009629
Y0022629
T06
X002284Y0036449
X002539
X002794
T07
X0007112Y0036362
Y0041362
T08
X0036616Y0007875
Y0032385
X0083566
Y0007875
M30
