G04*
G04 #@! TF.GenerationSoftware,Altium Limited,Altium Designer,24.5.2 (23)*
G04*
G04 Layer_Color=8388736*
%FSLAX44Y44*%
%MOMM*%
G71*
G04*
G04 #@! TF.SameCoordinates,6AB9B958-AD33-4624-B604-30B7BB5DF34D*
G04*
G04*
G04 #@! TF.FilePolarity,Negative*
G04*
G01*
G75*
%ADD17C,1.7332*%
%ADD18C,2.1532*%
G04:AMPARAMS|DCode=19|XSize=2.1532mm|YSize=2.1532mm|CornerRadius=0.5891mm|HoleSize=0mm|Usage=FLASHONLY|Rotation=270.000|XOffset=0mm|YOffset=0mm|HoleType=Round|Shape=RoundedRectangle|*
%AMROUNDEDRECTD19*
21,1,2.1532,0.9750,0,0,270.0*
21,1,0.9750,2.1532,0,0,270.0*
1,1,1.1782,-0.4875,-0.4875*
1,1,1.1782,-0.4875,0.4875*
1,1,1.1782,0.4875,0.4875*
1,1,1.1782,0.4875,-0.4875*
%
%ADD19ROUNDEDRECTD19*%
%ADD20C,3.2032*%
%ADD21C,2.2032*%
%ADD22R,2.2032X2.2032*%
%ADD23R,1.7032X1.7032*%
%ADD24C,1.7032*%
%ADD25C,2.1132*%
%ADD26R,2.1132X2.1132*%
%ADD27C,1.7500*%
%ADD28C,1.7932*%
%ADD29R,1.7932X1.7932*%
%ADD30C,1.5032*%
%ADD31C,1.4612*%
%ADD32C,1.4032*%
%ADD33R,1.4032X1.4032*%
%ADD34R,1.7032X1.7032*%
%ADD35R,2.0632X2.0632*%
%ADD36C,2.0632*%
%ADD37C,1.4732*%
D17*
X275590Y779780D02*
D03*
X199390D02*
D03*
X224790D02*
D03*
X250190D02*
D03*
D18*
X68580Y59690D02*
D03*
D19*
Y109690D02*
D03*
D20*
X995270Y407280D02*
D03*
Y162180D02*
D03*
X525770D02*
D03*
Y407280D02*
D03*
D21*
X560070Y157480D02*
D03*
X585470D02*
D03*
X610870D02*
D03*
X636270D02*
D03*
X661670D02*
D03*
X687070D02*
D03*
X712470D02*
D03*
X737870D02*
D03*
X763270D02*
D03*
X788670D02*
D03*
X814070D02*
D03*
X839470D02*
D03*
X864870D02*
D03*
X890270D02*
D03*
X915670D02*
D03*
X560070Y411480D02*
D03*
X585470D02*
D03*
X610870D02*
D03*
X636270D02*
D03*
X661670D02*
D03*
X687070D02*
D03*
X712470D02*
D03*
X737870D02*
D03*
X763270D02*
D03*
X788670D02*
D03*
X814070D02*
D03*
X839470D02*
D03*
X864870D02*
D03*
X890270D02*
D03*
D22*
X915670D02*
D03*
D23*
X916940Y468630D02*
D03*
X560070Y106680D02*
D03*
D24*
X891540Y468630D02*
D03*
X866140D02*
D03*
X840740D02*
D03*
X815340D02*
D03*
X789940D02*
D03*
X764540D02*
D03*
X739140D02*
D03*
X713740D02*
D03*
X688340D02*
D03*
X662940D02*
D03*
X637540D02*
D03*
X612140D02*
D03*
X586740D02*
D03*
X561340D02*
D03*
X991870Y676910D02*
D03*
Y651510D02*
D03*
Y626110D02*
D03*
Y600710D02*
D03*
Y575310D02*
D03*
X772160Y702310D02*
D03*
Y676910D02*
D03*
Y651510D02*
D03*
Y626110D02*
D03*
Y600710D02*
D03*
X915670Y106680D02*
D03*
X890270D02*
D03*
X864870D02*
D03*
X839470D02*
D03*
X814070D02*
D03*
X788670D02*
D03*
X763270D02*
D03*
X737870D02*
D03*
X712470D02*
D03*
X687070D02*
D03*
X661670D02*
D03*
X636270D02*
D03*
X610870D02*
D03*
X585470D02*
D03*
D25*
X313590Y487680D02*
D03*
X339090D02*
D03*
D26*
X364590D02*
D03*
D27*
X195580Y339320D02*
D03*
Y209320D02*
D03*
X62230Y209090D02*
D03*
Y339090D02*
D03*
D28*
X303530Y329930D02*
D03*
D29*
Y226330D02*
D03*
D30*
X247650Y134620D02*
D03*
Y58420D02*
D03*
D31*
X397510Y310440D02*
D03*
Y380440D02*
D03*
X398780Y191060D02*
D03*
Y261060D02*
D03*
Y122630D02*
D03*
Y52630D02*
D03*
D32*
X317500Y684530D02*
D03*
X81280Y684130D02*
D03*
X554990Y624370D02*
D03*
D33*
X317500Y634530D02*
D03*
X81280Y634130D02*
D03*
X554990Y674370D02*
D03*
D34*
X991870Y702310D02*
D03*
X772160Y727710D02*
D03*
D35*
X123190Y486410D02*
D03*
D36*
X97790D02*
D03*
X72390D02*
D03*
D37*
X321310Y777240D02*
D03*
X363220Y793750D02*
D03*
X443230Y52070D02*
D03*
X358140Y144780D02*
D03*
X787400Y64770D02*
D03*
X588010Y515620D02*
D03*
X560070Y520700D02*
D03*
X695960Y537210D02*
D03*
X125730Y186030D02*
D03*
X415290Y586740D02*
D03*
X339090Y530860D02*
D03*
X450850Y674370D02*
D03*
X626110Y623570D02*
D03*
X467360Y542290D02*
D03*
X139700Y107950D02*
D03*
X262890Y375920D02*
D03*
X231140Y209550D02*
D03*
X212090Y134620D02*
D03*
X21590Y455930D02*
D03*
X294640Y566420D02*
D03*
X367030Y751840D02*
D03*
X650240Y651510D02*
D03*
X118110Y339090D02*
D03*
X265430Y485140D02*
D03*
M02*
