G04*
G04 #@! TF.GenerationSoftware,Altium Limited,Altium Designer,24.5.2 (23)*
G04*
G04 Layer_Physical_Order=2*
G04 Layer_Color=16711680*
%FSLAX44Y44*%
%MOMM*%
G71*
G04*
G04 #@! TF.SameCoordinates,6AB9B958-AD33-4624-B604-30B7BB5DF34D*
G04*
G04*
G04 #@! TF.FilePolarity,Positive*
G04*
G01*
G75*
%ADD38C,1.1000*%
%ADD39C,0.5000*%
%ADD40C,0.9000*%
%ADD41C,1.5300*%
%ADD42C,1.9500*%
G04:AMPARAMS|DCode=43|XSize=1.95mm|YSize=1.95mm|CornerRadius=0.4875mm|HoleSize=0mm|Usage=FLASHONLY|Rotation=270.000|XOffset=0mm|YOffset=0mm|HoleType=Round|Shape=RoundedRectangle|*
%AMROUNDEDRECTD43*
21,1,1.9500,0.9750,0,0,270.0*
21,1,0.9750,1.9500,0,0,270.0*
1,1,0.9750,-0.4875,-0.4875*
1,1,0.9750,-0.4875,0.4875*
1,1,0.9750,0.4875,0.4875*
1,1,0.9750,0.4875,-0.4875*
%
%ADD43ROUNDEDRECTD43*%
%ADD44C,3.0000*%
%ADD45C,2.0000*%
%ADD46R,2.0000X2.0000*%
%ADD47R,1.5000X1.5000*%
%ADD48C,1.5000*%
%ADD49C,1.9100*%
%ADD50R,1.9100X1.9100*%
%ADD51C,1.6500*%
%ADD52C,1.5900*%
%ADD53R,1.5900X1.5900*%
%ADD54C,1.3000*%
%ADD55C,1.2580*%
%ADD56C,1.2000*%
%ADD57R,1.2000X1.2000*%
%ADD58R,1.5000X1.5000*%
%ADD59R,1.8600X1.8600*%
%ADD60C,1.8600*%
%ADD61C,1.2700*%
G36*
X1054100Y-978D02*
X1051268Y-3803D01*
X-1270Y-1270D01*
Y816610D01*
X0Y817880D01*
X1054100D01*
Y-978D01*
D02*
G37*
%LPC*%
G36*
X364714Y805100D02*
X361726D01*
X358839Y804326D01*
X356251Y802832D01*
X355913Y802495D01*
X265340D01*
X263382Y802237D01*
X261558Y801481D01*
X259991Y800279D01*
X252081Y792370D01*
X251855Y792430D01*
X248525D01*
X245307Y791568D01*
X242423Y789902D01*
X240068Y787547D01*
X239799Y787083D01*
X235181D01*
X234912Y787547D01*
X232557Y789902D01*
X229673Y791568D01*
X226455Y792430D01*
X223125D01*
X219907Y791568D01*
X217023Y789902D01*
X214667Y787547D01*
X214399Y787083D01*
X209781D01*
X209513Y787547D01*
X207157Y789902D01*
X204273Y791568D01*
X201055Y792430D01*
X197725D01*
X194507Y791568D01*
X191623Y789902D01*
X189268Y787547D01*
X187602Y784663D01*
X186740Y781445D01*
Y778115D01*
X187602Y774897D01*
X189268Y772013D01*
X191623Y769658D01*
X194507Y767992D01*
X197725Y767130D01*
X198489D01*
X249764Y715854D01*
X251749Y714332D01*
X254060Y713374D01*
X256540Y713048D01*
X355441D01*
X450894Y617595D01*
X452879Y616072D01*
X455190Y615115D01*
X457670Y614788D01*
X549586D01*
X550744Y614120D01*
X552035Y613774D01*
X574415Y591395D01*
X576399Y589872D01*
X578710Y588914D01*
X581190Y588588D01*
X765377D01*
X767857Y588914D01*
X767868Y588919D01*
X770514Y588210D01*
X773806D01*
X776985Y589062D01*
X779835Y590708D01*
X780256Y591128D01*
X816451D01*
X922754Y484826D01*
X921223Y481130D01*
X904440D01*
Y478967D01*
X900440Y477408D01*
X899215Y478633D01*
X896365Y480278D01*
X893186Y481130D01*
X889894D01*
X886715Y480278D01*
X883865Y478633D01*
X881537Y476305D01*
X881149Y475633D01*
X876531D01*
X876143Y476305D01*
X873815Y478633D01*
X870965Y480278D01*
X867786Y481130D01*
X864494D01*
X861315Y480278D01*
X858465Y478633D01*
X856137Y476305D01*
X855749Y475633D01*
X851131D01*
X850742Y476305D01*
X848415Y478633D01*
X845565Y480278D01*
X842386Y481130D01*
X839094D01*
X835915Y480278D01*
X833065Y478633D01*
X830738Y476305D01*
X830349Y475633D01*
X825731D01*
X825342Y476305D01*
X823015Y478633D01*
X820165Y480278D01*
X816986Y481130D01*
X813694D01*
X810515Y480278D01*
X807665Y478633D01*
X805338Y476305D01*
X804949Y475633D01*
X800331D01*
X799942Y476305D01*
X797615Y478633D01*
X794765Y480278D01*
X791586Y481130D01*
X788294D01*
X785115Y480278D01*
X782265Y478633D01*
X779938Y476305D01*
X779549Y475633D01*
X774931D01*
X774542Y476305D01*
X772215Y478633D01*
X769365Y480278D01*
X766186Y481130D01*
X762894D01*
X759715Y480278D01*
X756865Y478633D01*
X754538Y476305D01*
X754149Y475633D01*
X749531D01*
X749143Y476305D01*
X746815Y478633D01*
X746705Y478696D01*
Y494030D01*
X746447Y495988D01*
X745691Y497812D01*
X744489Y499379D01*
X707310Y536558D01*
Y538704D01*
X706536Y541591D01*
X705042Y544179D01*
X702929Y546292D01*
X700341Y547786D01*
X697454Y548560D01*
X694466D01*
X691579Y547786D01*
X688991Y546292D01*
X686878Y544179D01*
X685384Y541591D01*
X684610Y538704D01*
Y535716D01*
X685384Y532829D01*
X686878Y530241D01*
X688991Y528128D01*
X691579Y526633D01*
X694466Y525860D01*
X696612D01*
X731575Y490897D01*
Y478696D01*
X731465Y478633D01*
X729137Y476305D01*
X728749Y475633D01*
X724131D01*
X723743Y476305D01*
X721415Y478633D01*
X718565Y480278D01*
X715386Y481130D01*
X712094D01*
X711971Y481097D01*
X645429Y547639D01*
X643862Y548841D01*
X642038Y549597D01*
X640080Y549855D01*
X475847D01*
X474329Y551372D01*
X471741Y552867D01*
X468854Y553640D01*
X465866D01*
X462979Y552867D01*
X460391Y551372D01*
X458278Y549259D01*
X456783Y546671D01*
X456010Y543784D01*
Y540796D01*
X456783Y537909D01*
X458278Y535321D01*
X460391Y533208D01*
X462979Y531713D01*
X465866Y530940D01*
X468854D01*
X471741Y531713D01*
X474329Y533208D01*
X475847Y534725D01*
X553662D01*
X554734Y530725D01*
X553101Y529782D01*
X550988Y527669D01*
X549493Y525081D01*
X548720Y522194D01*
Y519206D01*
X549493Y516319D01*
X550988Y513731D01*
X553101Y511618D01*
X553140Y511595D01*
Y478108D01*
X551338Y476305D01*
X550429Y474731D01*
X550276Y474614D01*
X549074Y473047D01*
X548318Y471223D01*
X548060Y469265D01*
X548318Y467307D01*
X549074Y465483D01*
X549333Y465145D01*
X549692Y463805D01*
X551338Y460955D01*
X553140Y459152D01*
Y424846D01*
X552965Y424773D01*
X550508Y423131D01*
X548419Y421042D01*
X546777Y418585D01*
X542380Y418421D01*
X541305Y420029D01*
X538520Y422815D01*
X535244Y425004D01*
X531604Y426511D01*
X527740Y427280D01*
X523801D01*
X519937Y426511D01*
X516297Y425004D01*
X513021Y422815D01*
X510235Y420029D01*
X508047Y416753D01*
X506539Y413114D01*
X505770Y409250D01*
Y405310D01*
X506539Y401446D01*
X508047Y397806D01*
X510235Y394531D01*
X513021Y391745D01*
X516297Y389556D01*
X519937Y388048D01*
X523801Y387280D01*
X527740D01*
X531604Y388048D01*
X535244Y389556D01*
X538520Y391745D01*
X541305Y394531D01*
X543494Y397806D01*
X544589Y400450D01*
X546892Y401333D01*
X547082Y401365D01*
X549049Y401288D01*
X550508Y399829D01*
X552965Y398187D01*
X555695Y397057D01*
X558593Y396480D01*
X561547D01*
X564445Y397057D01*
X567175Y398187D01*
X569632Y399829D01*
X570095Y400292D01*
X572770Y401460D01*
X575445Y400292D01*
X575908Y399829D01*
X578365Y398187D01*
X581095Y397057D01*
X583993Y396480D01*
X586947D01*
X589845Y397057D01*
X592575Y398187D01*
X595032Y399829D01*
X595495Y400292D01*
X598170Y401460D01*
X600845Y400292D01*
X601308Y399829D01*
X603765Y398187D01*
X606495Y397057D01*
X609393Y396480D01*
X612347D01*
X615245Y397057D01*
X617975Y398187D01*
X620432Y399829D01*
X620895Y400292D01*
X623570Y401460D01*
X626245Y400292D01*
X626708Y399829D01*
X629165Y398187D01*
X631895Y397057D01*
X634793Y396480D01*
X637747D01*
X640645Y397057D01*
X643375Y398187D01*
X645832Y399829D01*
X646295Y400292D01*
X648970Y401460D01*
X651645Y400292D01*
X652108Y399829D01*
X654565Y398187D01*
X657295Y397057D01*
X660193Y396480D01*
X663147D01*
X666045Y397057D01*
X668775Y398187D01*
X671232Y399829D01*
X671695Y400292D01*
X674370Y401460D01*
X677045Y400292D01*
X677508Y399829D01*
X679965Y398187D01*
X682695Y397057D01*
X685593Y396480D01*
X688547D01*
X691445Y397057D01*
X694175Y398187D01*
X696632Y399829D01*
X697095Y400292D01*
X699770Y401460D01*
X702445Y400292D01*
X702908Y399829D01*
X705365Y398187D01*
X708095Y397057D01*
X710993Y396480D01*
X713947D01*
X716845Y397057D01*
X719575Y398187D01*
X722032Y399829D01*
X722495Y400292D01*
X725170Y401460D01*
X727845Y400292D01*
X728308Y399829D01*
X730765Y398187D01*
X733495Y397057D01*
X736393Y396480D01*
X739347D01*
X742245Y397057D01*
X744975Y398187D01*
X747432Y399829D01*
X747895Y400292D01*
X750570Y401460D01*
X753245Y400292D01*
X753708Y399829D01*
X756165Y398187D01*
X758895Y397057D01*
X761793Y396480D01*
X764747D01*
X767645Y397057D01*
X770375Y398187D01*
X772832Y399829D01*
X773295Y400292D01*
X775970Y401460D01*
X778645Y400292D01*
X779108Y399829D01*
X781565Y398187D01*
X784295Y397057D01*
X787193Y396480D01*
X790147D01*
X793045Y397057D01*
X795775Y398187D01*
X798232Y399829D01*
X798695Y400292D01*
X801370Y401460D01*
X804045Y400292D01*
X804508Y399829D01*
X806965Y398187D01*
X809695Y397057D01*
X812593Y396480D01*
X815547D01*
X818445Y397057D01*
X821175Y398187D01*
X823632Y399829D01*
X824095Y400292D01*
X826770Y401460D01*
X829445Y400292D01*
X829908Y399829D01*
X832365Y398187D01*
X835095Y397057D01*
X837993Y396480D01*
X840947D01*
X843845Y397057D01*
X846575Y398187D01*
X849032Y399829D01*
X849495Y400292D01*
X852170Y401460D01*
X854845Y400292D01*
X855308Y399829D01*
X857765Y398187D01*
X860495Y397057D01*
X863393Y396480D01*
X866347D01*
X869245Y397057D01*
X871975Y398187D01*
X874432Y399829D01*
X874895Y400292D01*
X877570Y401460D01*
X880245Y400292D01*
X880708Y399829D01*
X883165Y398187D01*
X885895Y397057D01*
X888793Y396480D01*
X891747D01*
X894645Y397057D01*
X896670Y397895D01*
X900670Y396480D01*
Y396480D01*
X930670D01*
Y426480D01*
X925887D01*
Y456130D01*
X929440D01*
Y472913D01*
X933136Y474444D01*
X947998Y459581D01*
Y230936D01*
X889542Y172480D01*
X888793D01*
X885895Y171903D01*
X883165Y170773D01*
X880708Y169131D01*
X880245Y168668D01*
X877570Y167500D01*
X874895Y168668D01*
X874432Y169131D01*
X871975Y170773D01*
X869245Y171903D01*
X866347Y172480D01*
X863393D01*
X860495Y171903D01*
X857765Y170773D01*
X855308Y169131D01*
X854845Y168668D01*
X852170Y167500D01*
X849495Y168668D01*
X849032Y169131D01*
X846575Y170773D01*
X843845Y171903D01*
X840947Y172480D01*
X837993D01*
X835095Y171903D01*
X832365Y170773D01*
X829908Y169131D01*
X829445Y168668D01*
X826770Y167500D01*
X824095Y168668D01*
X823632Y169131D01*
X821175Y170773D01*
X818445Y171903D01*
X815547Y172480D01*
X812593D01*
X809695Y171903D01*
X806965Y170773D01*
X804508Y169131D01*
X804045Y168668D01*
X801370Y167500D01*
X798695Y168668D01*
X798232Y169131D01*
X795775Y170773D01*
X793045Y171903D01*
X790147Y172480D01*
X787193D01*
X784295Y171903D01*
X781565Y170773D01*
X779108Y169131D01*
X778645Y168668D01*
X775970Y167500D01*
X773295Y168668D01*
X772832Y169131D01*
X770375Y170773D01*
X767645Y171903D01*
X764747Y172480D01*
X761793D01*
X758895Y171903D01*
X756165Y170773D01*
X753708Y169131D01*
X753245Y168668D01*
X750570Y167500D01*
X747895Y168668D01*
X747432Y169131D01*
X744975Y170773D01*
X742245Y171903D01*
X739347Y172480D01*
X736393D01*
X733495Y171903D01*
X730765Y170773D01*
X728308Y169131D01*
X727845Y168668D01*
X725170Y167500D01*
X722495Y168668D01*
X722032Y169131D01*
X719575Y170773D01*
X716845Y171903D01*
X713947Y172480D01*
X710993D01*
X708095Y171903D01*
X705365Y170773D01*
X702908Y169131D01*
X702445Y168668D01*
X699770Y167500D01*
X697095Y168668D01*
X696632Y169131D01*
X694175Y170773D01*
X691445Y171903D01*
X688547Y172480D01*
X685593D01*
X682695Y171903D01*
X679965Y170773D01*
X677508Y169131D01*
X677045Y168668D01*
X674370Y167500D01*
X671695Y168668D01*
X671232Y169131D01*
X668775Y170773D01*
X666045Y171903D01*
X663147Y172480D01*
X660193D01*
X657295Y171903D01*
X654565Y170773D01*
X652108Y169131D01*
X651645Y168668D01*
X648970Y167500D01*
X646295Y168668D01*
X645832Y169131D01*
X643375Y170773D01*
X640645Y171903D01*
X637747Y172480D01*
X634793D01*
X631895Y171903D01*
X629165Y170773D01*
X626708Y169131D01*
X626245Y168668D01*
X623570Y167500D01*
X620895Y168668D01*
X620432Y169131D01*
X617975Y170773D01*
X615245Y171903D01*
X612347Y172480D01*
X609393D01*
X606495Y171903D01*
X603765Y170773D01*
X601308Y169131D01*
X600845Y168668D01*
X598170Y167500D01*
X595495Y168668D01*
X595032Y169131D01*
X592575Y170773D01*
X589845Y171903D01*
X586947Y172480D01*
X583993D01*
X581095Y171903D01*
X578365Y170773D01*
X575908Y169131D01*
X575445Y168668D01*
X572770Y167500D01*
X570095Y168668D01*
X569632Y169131D01*
X567175Y170773D01*
X564445Y171903D01*
X561547Y172480D01*
X558593D01*
X555695Y171903D01*
X552965Y170773D01*
X550508Y169131D01*
X549132Y167755D01*
X546454Y167923D01*
X544717Y168701D01*
X543494Y171654D01*
X541305Y174929D01*
X538520Y177715D01*
X535244Y179904D01*
X531604Y181411D01*
X527740Y182180D01*
X523801D01*
X519937Y181411D01*
X516297Y179904D01*
X513021Y177715D01*
X510235Y174929D01*
X508047Y171654D01*
X506539Y168014D01*
X505770Y164150D01*
Y160210D01*
X506539Y156346D01*
X508047Y152706D01*
X510235Y149431D01*
X513021Y146645D01*
X516297Y144456D01*
X519937Y142949D01*
X523801Y142180D01*
X527740D01*
X531604Y142949D01*
X535244Y144456D01*
X538520Y146645D01*
X541305Y149431D01*
X542252Y150847D01*
X546766Y150403D01*
X546777Y150375D01*
X548419Y147918D01*
X550488Y145849D01*
Y119180D01*
X547570D01*
Y94180D01*
X572570D01*
Y96343D01*
X576570Y97902D01*
X577795Y96678D01*
X580645Y95032D01*
X583824Y94180D01*
X587116D01*
X590295Y95032D01*
X593145Y96678D01*
X595472Y99005D01*
X595861Y99677D01*
X600479D01*
X600868Y99005D01*
X603195Y96678D01*
X606045Y95032D01*
X609224Y94180D01*
X612516D01*
X615695Y95032D01*
X618545Y96678D01*
X620872Y99005D01*
X621261Y99677D01*
X625879D01*
X626268Y99005D01*
X628595Y96678D01*
X631445Y95032D01*
X634624Y94180D01*
X637916D01*
X641095Y95032D01*
X643945Y96678D01*
X646273Y99005D01*
X646661Y99677D01*
X651279D01*
X651667Y99005D01*
X653995Y96678D01*
X656845Y95032D01*
X660024Y94180D01*
X663316D01*
X666495Y95032D01*
X669345Y96678D01*
X671673Y99005D01*
X672061Y99677D01*
X676679D01*
X677067Y99005D01*
X679395Y96678D01*
X682245Y95032D01*
X685424Y94180D01*
X688716D01*
X691895Y95032D01*
X694745Y96678D01*
X697073Y99005D01*
X697461Y99677D01*
X702079D01*
X702467Y99005D01*
X704795Y96678D01*
X707645Y95032D01*
X710824Y94180D01*
X714116D01*
X717295Y95032D01*
X720145Y96678D01*
X722473Y99005D01*
X722861Y99677D01*
X727479D01*
X727868Y99005D01*
X730195Y96678D01*
X733045Y95032D01*
X736224Y94180D01*
X739516D01*
X742695Y95032D01*
X745545Y96678D01*
X747872Y99005D01*
X748261Y99677D01*
X752879D01*
X753268Y99005D01*
X755595Y96678D01*
X758445Y95032D01*
X761624Y94180D01*
X764916D01*
X768095Y95032D01*
X770945Y96678D01*
X773272Y99005D01*
X773661Y99677D01*
X778279D01*
X778668Y99005D01*
X780995Y96678D01*
X783845Y95032D01*
X787024Y94180D01*
X790316D01*
X793495Y95032D01*
X796345Y96678D01*
X798672Y99005D01*
X799061Y99677D01*
X803679D01*
X804068Y99005D01*
X806395Y96678D01*
X809245Y95032D01*
X812424Y94180D01*
X815716D01*
X818895Y95032D01*
X821745Y96678D01*
X824072Y99005D01*
X824461Y99677D01*
X829079D01*
X829467Y99005D01*
X831795Y96678D01*
X834645Y95032D01*
X837824Y94180D01*
X841116D01*
X844295Y95032D01*
X847145Y96678D01*
X849473Y99005D01*
X849861Y99677D01*
X854479D01*
X854867Y99005D01*
X857195Y96678D01*
X860045Y95032D01*
X862552Y94360D01*
X863601Y92307D01*
X864029Y90180D01*
X848201Y74352D01*
X793504D01*
X791781Y75346D01*
X788894Y76120D01*
X785906D01*
X783019Y75346D01*
X780431Y73852D01*
X778318Y71739D01*
X776824Y69151D01*
X776050Y66264D01*
Y63276D01*
X776824Y60389D01*
X778318Y57801D01*
X780431Y55688D01*
X783019Y54194D01*
X785906Y53420D01*
X788894D01*
X791781Y54194D01*
X793504Y55188D01*
X852170D01*
X854650Y55514D01*
X856961Y56472D01*
X858945Y57994D01*
X894045Y93095D01*
X895568Y95079D01*
X895691Y95376D01*
X897945Y96678D01*
X900272Y99005D01*
X901756Y99267D01*
X905079Y96323D01*
Y58997D01*
X889693Y43611D01*
X456071D01*
X453761Y47611D01*
X453806Y47689D01*
X454580Y50576D01*
Y53564D01*
X453806Y56451D01*
X452312Y59039D01*
X450199Y61152D01*
X447611Y62646D01*
X444724Y63420D01*
X441736D01*
X438849Y62646D01*
X437611Y61932D01*
X405248D01*
X403138Y63150D01*
X400266Y63920D01*
X397294D01*
X394422Y63150D01*
X391848Y61664D01*
X389746Y59562D01*
X388259Y56988D01*
X387490Y54116D01*
Y51143D01*
X388259Y48272D01*
X388641Y47611D01*
X386395Y43611D01*
X363797D01*
X343331Y64077D01*
Y118110D01*
X342970Y120851D01*
X341912Y123405D01*
X340229Y125599D01*
X340229Y125599D01*
X294509Y171319D01*
X292315Y173002D01*
X289761Y174060D01*
X287020Y174421D01*
X287020Y174421D01*
X131402D01*
X130330Y178421D01*
X131189Y178916D01*
X132844Y180571D01*
X134014Y182599D01*
X134593Y184760D01*
X116867D01*
X117446Y182599D01*
X118616Y180571D01*
X120271Y178916D01*
X121130Y178421D01*
X120058Y174421D01*
X69157D01*
X38531Y205047D01*
Y300413D01*
X63957Y325840D01*
X63974D01*
X67344Y326743D01*
X70366Y328487D01*
X70378Y328499D01*
X113782D01*
X116616Y327740D01*
X119604D01*
X122491Y328513D01*
X125079Y330008D01*
X127192Y332121D01*
X128687Y334709D01*
X129460Y337596D01*
Y340584D01*
X128687Y343471D01*
X127192Y346059D01*
X125079Y348172D01*
X122491Y349666D01*
X119604Y350440D01*
X116616D01*
X113782Y349681D01*
X70378D01*
X70366Y349693D01*
X67344Y351437D01*
X63974Y352340D01*
X60486D01*
X57116Y351437D01*
X54094Y349693D01*
X51627Y347226D01*
X49883Y344204D01*
X48980Y340834D01*
Y340817D01*
X20451Y312289D01*
X18768Y310095D01*
X17710Y307541D01*
X17349Y304800D01*
X17349Y304800D01*
Y200660D01*
X17349Y200660D01*
X17710Y197919D01*
X18768Y195365D01*
X20451Y193171D01*
X57281Y156341D01*
X59475Y154658D01*
X62029Y153600D01*
X64770Y153239D01*
X64770Y153239D01*
X282633D01*
X322149Y113723D01*
Y59690D01*
X322149Y59690D01*
X322510Y56949D01*
X323568Y54395D01*
X325251Y52201D01*
X351921Y25531D01*
X351921Y25531D01*
X354115Y23848D01*
X356669Y22790D01*
X359410Y22429D01*
X894080D01*
X894080Y22429D01*
X896821Y22790D01*
X899375Y23848D01*
X901569Y25531D01*
X923159Y47121D01*
X923159Y47121D01*
X924842Y49315D01*
X925900Y51869D01*
X926261Y54610D01*
X926261Y54610D01*
Y100023D01*
X927318Y101855D01*
X928170Y105034D01*
Y108326D01*
X927318Y111505D01*
X925673Y114355D01*
X925252Y114776D01*
Y145849D01*
X927321Y147918D01*
X928963Y150375D01*
X930094Y153105D01*
X930670Y156003D01*
Y158957D01*
X930094Y161855D01*
X928963Y164585D01*
X927321Y167042D01*
X925232Y169131D01*
X922775Y170773D01*
X921232Y171412D01*
X920102Y174634D01*
X920129Y175965D01*
X964355Y220192D01*
X965878Y222176D01*
X966835Y224487D01*
X967162Y226967D01*
Y463550D01*
X966835Y466030D01*
X965878Y468341D01*
X964355Y470326D01*
X827195Y607485D01*
X825211Y609008D01*
X822900Y609966D01*
X820420Y610292D01*
X780256D01*
X779835Y610713D01*
X779163Y611101D01*
Y615719D01*
X779835Y616107D01*
X782162Y618435D01*
X783808Y621285D01*
X784660Y624464D01*
Y627756D01*
X783808Y630935D01*
X782162Y633785D01*
X779835Y636113D01*
X779163Y636501D01*
Y641119D01*
X779835Y641507D01*
X782162Y643835D01*
X783808Y646685D01*
X784660Y649864D01*
Y653156D01*
X783808Y656335D01*
X782162Y659185D01*
X779835Y661513D01*
X779163Y661901D01*
Y666519D01*
X779835Y666908D01*
X782162Y669235D01*
X783808Y672085D01*
X784660Y675264D01*
Y678556D01*
X783808Y681735D01*
X782162Y684585D01*
X779835Y686913D01*
X779163Y687301D01*
Y691919D01*
X779835Y692308D01*
X782162Y694635D01*
X783808Y697485D01*
X784660Y700664D01*
Y703956D01*
X783808Y707135D01*
X782162Y709985D01*
X780938Y711210D01*
X782497Y715210D01*
X784660D01*
Y740210D01*
X759660D01*
Y716901D01*
X759660Y715210D01*
X756617Y712901D01*
X582930D01*
X582930Y712901D01*
X580189Y712540D01*
X577635Y711482D01*
X575441Y709799D01*
X551013Y685370D01*
X543990D01*
Y684961D01*
X455178D01*
X452344Y685720D01*
X449356D01*
X446469Y684947D01*
X443881Y683452D01*
X441768Y681339D01*
X440274Y678751D01*
X439500Y675864D01*
Y672876D01*
X440274Y669989D01*
X441768Y667401D01*
X443881Y665288D01*
X446469Y663793D01*
X449356Y663020D01*
X452344D01*
X455178Y663779D01*
X543990D01*
Y663370D01*
X565990D01*
Y670393D01*
X587317Y691719D01*
X761803D01*
X764747Y688396D01*
X764485Y686912D01*
X762158Y684585D01*
X760512Y681735D01*
X759660Y678556D01*
Y675264D01*
X760512Y672085D01*
X762158Y669235D01*
X764485Y666908D01*
X765157Y666519D01*
Y661901D01*
X764485Y661513D01*
X762158Y659185D01*
X762094Y659075D01*
X658727D01*
X657209Y660592D01*
X654621Y662086D01*
X651734Y662860D01*
X648746D01*
X645859Y662086D01*
X643271Y660592D01*
X641158Y658479D01*
X639664Y655891D01*
X638890Y653004D01*
Y650016D01*
X639664Y647129D01*
X641158Y644541D01*
X643271Y642428D01*
X645859Y640934D01*
X648746Y640160D01*
X651734D01*
X654621Y640934D01*
X657209Y642428D01*
X658727Y643945D01*
X762094D01*
X762158Y643835D01*
X764485Y641507D01*
X765157Y641119D01*
Y636501D01*
X764485Y636113D01*
X762158Y633785D01*
X762094Y633675D01*
X631308D01*
X630491Y634146D01*
X627604Y634920D01*
X624616D01*
X621729Y634146D01*
X619141Y632652D01*
X617028Y630539D01*
X615533Y627951D01*
X614760Y625064D01*
Y622076D01*
X615533Y619189D01*
X617028Y616601D01*
X619141Y614488D01*
X621729Y612994D01*
X624616Y612220D01*
X627604D01*
X630491Y612994D01*
X633079Y614488D01*
X635192Y616601D01*
X636315Y618545D01*
X762094D01*
X762158Y618435D01*
X764485Y616107D01*
X765157Y615719D01*
Y611101D01*
X764485Y610713D01*
X762158Y608385D01*
X761792Y607752D01*
X585159D01*
X565586Y627325D01*
X565240Y628616D01*
X563792Y631124D01*
X561744Y633172D01*
X559236Y634620D01*
X556438Y635370D01*
X553542D01*
X550744Y634620D01*
X549586Y633952D01*
X461639D01*
X366185Y729406D01*
X364201Y730928D01*
X361890Y731886D01*
X359410Y732212D01*
X260509D01*
X252368Y740352D01*
X252411Y740818D01*
X254102Y744275D01*
X358543D01*
X360061Y742758D01*
X362649Y741264D01*
X365536Y740490D01*
X368524D01*
X371411Y741264D01*
X373999Y742758D01*
X376112Y744871D01*
X377607Y747459D01*
X378380Y750346D01*
Y753334D01*
X377607Y756221D01*
X376112Y758809D01*
X373999Y760922D01*
X371411Y762417D01*
X368524Y763190D01*
X365536D01*
X362649Y762417D01*
X360061Y760922D01*
X358543Y759405D01*
X255863D01*
X252055Y763213D01*
X252024Y763829D01*
X253385Y767540D01*
X255073Y767992D01*
X257957Y769658D01*
X260312Y772013D01*
X260581Y772477D01*
X265199D01*
X265467Y772013D01*
X267823Y769658D01*
X270707Y767992D01*
X273925Y767130D01*
X277255D01*
X280473Y767992D01*
X283357Y769658D01*
X285713Y772013D01*
X285830Y772215D01*
X311105D01*
X312228Y770271D01*
X314341Y768158D01*
X316929Y766664D01*
X319816Y765890D01*
X322804D01*
X325691Y766664D01*
X328279Y768158D01*
X330392Y770271D01*
X331886Y772859D01*
X332660Y775746D01*
Y778734D01*
X331886Y781621D01*
X330879Y783365D01*
X331879Y786086D01*
X332893Y787365D01*
X353800D01*
X354138Y786781D01*
X356251Y784668D01*
X358839Y783174D01*
X361726Y782400D01*
X364714D01*
X367601Y783174D01*
X370189Y784668D01*
X372302Y786781D01*
X373797Y789369D01*
X374570Y792256D01*
Y795244D01*
X373797Y798131D01*
X372302Y800719D01*
X370189Y802832D01*
X367601Y804326D01*
X364714Y805100D01*
D02*
G37*
G36*
X318770Y693031D02*
Y685800D01*
X326001D01*
X325458Y687826D01*
X324334Y689774D01*
X322744Y691364D01*
X320796Y692488D01*
X318770Y693031D01*
D02*
G37*
G36*
X316230D02*
X314204Y692488D01*
X312256Y691364D01*
X310666Y689774D01*
X309542Y687826D01*
X308999Y685800D01*
X316230D01*
Y693031D01*
D02*
G37*
G36*
X82550Y692631D02*
Y685400D01*
X89781D01*
X89238Y687427D01*
X88114Y689374D01*
X86524Y690964D01*
X84576Y692088D01*
X82550Y692631D01*
D02*
G37*
G36*
X80010D02*
X77984Y692088D01*
X76036Y690964D01*
X74446Y689374D01*
X73322Y687427D01*
X72779Y685400D01*
X80010D01*
Y692631D01*
D02*
G37*
G36*
X326001Y683260D02*
X318770D01*
Y676029D01*
X320796Y676572D01*
X322744Y677696D01*
X324334Y679286D01*
X325458Y681234D01*
X326001Y683260D01*
D02*
G37*
G36*
X316230D02*
X308999D01*
X309542Y681234D01*
X310666Y679286D01*
X312256Y677696D01*
X314204Y676572D01*
X316230Y676029D01*
Y683260D01*
D02*
G37*
G36*
X89781Y682860D02*
X82550D01*
Y675629D01*
X84576Y676172D01*
X86524Y677297D01*
X88114Y678886D01*
X89238Y680834D01*
X89781Y682860D01*
D02*
G37*
G36*
X80010D02*
X72779D01*
X73322Y680834D01*
X74446Y678886D01*
X76036Y677297D01*
X77984Y676172D01*
X80010Y675629D01*
Y682860D01*
D02*
G37*
G36*
X328500Y645530D02*
X306500D01*
Y644921D01*
X92280D01*
Y645130D01*
X70280D01*
Y623130D01*
X70689D01*
Y502285D01*
X68605Y500200D01*
X66870Y499735D01*
X63610Y497853D01*
X60947Y495190D01*
X59065Y491930D01*
X58090Y488293D01*
Y487087D01*
X37523Y466521D01*
X25918D01*
X23084Y467280D01*
X20096D01*
X17209Y466507D01*
X14621Y465012D01*
X12508Y462899D01*
X11013Y460311D01*
X10240Y457424D01*
Y454436D01*
X11013Y451549D01*
X12508Y448961D01*
X14621Y446848D01*
X17209Y445354D01*
X20096Y444580D01*
X23084D01*
X25918Y445339D01*
X41910D01*
X41910Y445339D01*
X44651Y445700D01*
X47205Y446758D01*
X49399Y448441D01*
X73067Y472110D01*
X74273D01*
X77910Y473085D01*
X81170Y474967D01*
X82499Y476295D01*
X83675Y476703D01*
X87199Y474576D01*
Y432030D01*
X87199Y432030D01*
X87560Y429289D01*
X88618Y426735D01*
X90301Y424541D01*
X184989Y329853D01*
Y314198D01*
X184989Y314198D01*
X185350Y311457D01*
X186408Y308903D01*
X188091Y306709D01*
X275959Y218842D01*
X275959Y218842D01*
X278153Y217159D01*
X280707Y216101D01*
X283448Y215740D01*
X283448Y215740D01*
X290580D01*
Y213380D01*
X316480D01*
Y215740D01*
X359123D01*
X388395Y186468D01*
X389746Y184128D01*
X391848Y182026D01*
X394422Y180539D01*
X397294Y179770D01*
X400266D01*
X403138Y180539D01*
X405712Y182026D01*
X407814Y184128D01*
X409301Y186702D01*
X410070Y189573D01*
Y192546D01*
X409301Y195418D01*
X407814Y197992D01*
X405712Y200094D01*
X403372Y201445D01*
X370998Y233819D01*
X368805Y235502D01*
X366251Y236560D01*
X363510Y236921D01*
X363509Y236921D01*
X316480D01*
Y239280D01*
X290580D01*
Y239280D01*
X286580Y238175D01*
X206171Y318585D01*
Y331172D01*
X206183Y331185D01*
X207927Y334206D01*
X208830Y337576D01*
Y341064D01*
X207927Y344434D01*
X206183Y347456D01*
X203716Y349923D01*
X200694Y351667D01*
X197324Y352570D01*
X193836D01*
X192567Y352230D01*
X108381Y436417D01*
Y468321D01*
X108890Y472110D01*
X117104D01*
Y470214D01*
X117430Y467734D01*
X118388Y465423D01*
X119910Y463439D01*
X329047Y254302D01*
X331031Y252779D01*
X333342Y251822D01*
X335822Y251496D01*
X392766D01*
X394422Y250540D01*
X397294Y249770D01*
X400266D01*
X403138Y250540D01*
X405712Y252026D01*
X407814Y254128D01*
X409301Y256702D01*
X410070Y259574D01*
Y262547D01*
X409301Y265418D01*
X407814Y267992D01*
X407092Y268715D01*
Y304456D01*
X408031Y306082D01*
X408800Y308953D01*
Y311926D01*
X408031Y314798D01*
X406544Y317372D01*
X404442Y319474D01*
X401868Y320960D01*
X398996Y321730D01*
X396024D01*
X393152Y320960D01*
X390578Y319474D01*
X388476Y317372D01*
X386989Y314798D01*
X386220Y311926D01*
Y308953D01*
X386989Y306082D01*
X387928Y304456D01*
Y270660D01*
X339791D01*
X137490Y472961D01*
Y500710D01*
X108890D01*
X108381Y504499D01*
Y509963D01*
X154247Y555829D01*
X290312D01*
X293146Y555070D01*
X296134D01*
X299021Y555844D01*
X301609Y557338D01*
X303722Y559451D01*
X305217Y562039D01*
X305990Y564926D01*
Y567914D01*
X305217Y570801D01*
X303722Y573389D01*
X301609Y575502D01*
X299021Y576996D01*
X296134Y577770D01*
X293146D01*
X290312Y577011D01*
X149860D01*
X149860Y577011D01*
X147119Y576650D01*
X144565Y575592D01*
X142371Y573909D01*
X142371Y573909D01*
X95566Y527104D01*
X91871Y528634D01*
Y623130D01*
X92280D01*
Y623739D01*
X306500D01*
Y623530D01*
X313523D01*
X353999Y583053D01*
Y502230D01*
X350040D01*
Y499485D01*
X347881Y498181D01*
X346040Y497628D01*
X343757Y498946D01*
X340682Y499770D01*
X340360D01*
Y487680D01*
Y475590D01*
X340682D01*
X343757Y476414D01*
X346040Y477732D01*
X347881Y477179D01*
X350040Y475875D01*
Y473130D01*
X379140D01*
Y502230D01*
X375181D01*
Y587440D01*
X375181Y587440D01*
X374820Y590181D01*
X373762Y592735D01*
X372079Y594929D01*
X328500Y638507D01*
Y645530D01*
D02*
G37*
G36*
X416560Y595603D02*
Y588010D01*
X424153D01*
X423574Y590171D01*
X422404Y592199D01*
X420749Y593854D01*
X418721Y595024D01*
X416560Y595603D01*
D02*
G37*
G36*
X414020D02*
X411859Y595024D01*
X409831Y593854D01*
X408176Y592199D01*
X407006Y590171D01*
X406427Y588010D01*
X414020D01*
Y595603D01*
D02*
G37*
G36*
X424153Y585470D02*
X416560D01*
Y577877D01*
X418721Y578456D01*
X420749Y579626D01*
X422404Y581281D01*
X423574Y583309D01*
X424153Y585470D01*
D02*
G37*
G36*
X414020D02*
X406427D01*
X407006Y583309D01*
X408176Y581281D01*
X409831Y579626D01*
X411859Y578456D01*
X414020Y577877D01*
Y585470D01*
D02*
G37*
G36*
X1004370Y714810D02*
X979370D01*
Y689810D01*
X981533D01*
X983092Y685810D01*
X981868Y684585D01*
X980222Y681735D01*
X979370Y678556D01*
Y675264D01*
X980222Y672085D01*
X981868Y669235D01*
X984195Y666908D01*
X984867Y666519D01*
Y661901D01*
X984195Y661513D01*
X981868Y659185D01*
X980222Y656335D01*
X979370Y653156D01*
Y649864D01*
X980222Y646685D01*
X981868Y643835D01*
X984195Y641507D01*
X984867Y641119D01*
Y636501D01*
X984195Y636113D01*
X981868Y633785D01*
X980222Y630935D01*
X979370Y627756D01*
Y624464D01*
X980222Y621285D01*
X981868Y618435D01*
X984195Y616107D01*
X984867Y615719D01*
Y611101D01*
X984195Y610713D01*
X981868Y608385D01*
X980222Y605535D01*
X979370Y602356D01*
Y599064D01*
X980222Y595885D01*
X981868Y593035D01*
X984195Y590708D01*
X984867Y590319D01*
Y585701D01*
X984195Y585312D01*
X981868Y582985D01*
X980222Y580135D01*
X979370Y576956D01*
Y573664D01*
X980222Y570485D01*
X981868Y567635D01*
X984195Y565308D01*
X987045Y563662D01*
X990224Y562810D01*
X993516D01*
X996695Y563662D01*
X999545Y565308D01*
X1001872Y567635D01*
X1003518Y570485D01*
X1004370Y573664D01*
Y576956D01*
X1003518Y580135D01*
X1001872Y582985D01*
X999545Y585312D01*
X998873Y585701D01*
Y590319D01*
X999545Y590708D01*
X1001872Y593035D01*
X1003518Y595885D01*
X1004370Y599064D01*
Y602356D01*
X1003518Y605535D01*
X1001872Y608385D01*
X999545Y610713D01*
X998873Y611101D01*
Y615719D01*
X999545Y616107D01*
X1001872Y618435D01*
X1003518Y621285D01*
X1004370Y624464D01*
Y627756D01*
X1003518Y630935D01*
X1001872Y633785D01*
X999545Y636113D01*
X998873Y636501D01*
Y641119D01*
X999545Y641507D01*
X1001872Y643835D01*
X1003518Y646685D01*
X1004370Y649864D01*
Y653156D01*
X1003518Y656335D01*
X1001872Y659185D01*
X999545Y661513D01*
X998873Y661901D01*
Y666519D01*
X999545Y666908D01*
X1001872Y669235D01*
X1003518Y672085D01*
X1004370Y675264D01*
Y678556D01*
X1003518Y681735D01*
X1001872Y684585D01*
X1000648Y685810D01*
X1002207Y689810D01*
X1004370D01*
Y714810D01*
D02*
G37*
G36*
X340360Y539723D02*
Y532130D01*
X347953D01*
X347374Y534291D01*
X346204Y536319D01*
X344549Y537974D01*
X342521Y539144D01*
X340360Y539723D01*
D02*
G37*
G36*
X337820D02*
X335659Y539144D01*
X333631Y537974D01*
X331976Y536319D01*
X330806Y534291D01*
X330227Y532130D01*
X337820D01*
Y539723D01*
D02*
G37*
G36*
X347953Y529590D02*
X340360D01*
Y521997D01*
X342521Y522576D01*
X344549Y523746D01*
X346204Y525401D01*
X347374Y527429D01*
X347953Y529590D01*
D02*
G37*
G36*
X337820D02*
X330227D01*
X330806Y527429D01*
X331976Y525401D01*
X333631Y523746D01*
X335659Y522576D01*
X337820Y521997D01*
Y529590D01*
D02*
G37*
G36*
X315506Y502230D02*
X311674D01*
X307974Y501238D01*
X304656Y499323D01*
X303604Y498271D01*
X266700D01*
X263959Y497910D01*
X261405Y496852D01*
X259211Y495169D01*
X258504Y494247D01*
X258461Y494222D01*
X256348Y492109D01*
X254853Y489521D01*
X254080Y486634D01*
Y483646D01*
X254853Y480759D01*
X256348Y478171D01*
X258461Y476058D01*
X261049Y474563D01*
X263936Y473790D01*
X266924D01*
X269811Y474563D01*
X272399Y476058D01*
X273431Y477089D01*
X303604D01*
X304656Y476037D01*
X307974Y474122D01*
X311674Y473130D01*
X315506D01*
X319206Y474122D01*
X322524Y476037D01*
X325233Y478746D01*
X325451Y479124D01*
X326863Y479527D01*
X330245Y479427D01*
X331667Y478006D01*
X334423Y476414D01*
X337498Y475590D01*
X337820D01*
Y487680D01*
Y499770D01*
X337498D01*
X334423Y498946D01*
X331667Y497354D01*
X330245Y495933D01*
X326863Y495833D01*
X325451Y496236D01*
X325233Y496614D01*
X322524Y499323D01*
X319206Y501238D01*
X315506Y502230D01*
D02*
G37*
G36*
X997240Y427280D02*
X993300D01*
X989436Y426511D01*
X985797Y425004D01*
X982521Y422815D01*
X979735Y420029D01*
X977546Y416753D01*
X976039Y413114D01*
X975270Y409250D01*
Y405310D01*
X976039Y401446D01*
X977546Y397806D01*
X979735Y394531D01*
X982521Y391745D01*
X985797Y389556D01*
X989436Y388048D01*
X993300Y387280D01*
X997240D01*
X1001104Y388048D01*
X1004744Y389556D01*
X1008019Y391745D01*
X1010805Y394531D01*
X1012994Y397806D01*
X1014501Y401446D01*
X1015270Y405310D01*
Y409250D01*
X1014501Y413114D01*
X1012994Y416753D01*
X1010805Y420029D01*
X1008019Y422815D01*
X1004744Y425004D01*
X1001104Y426511D01*
X997240Y427280D01*
D02*
G37*
G36*
X398780Y389241D02*
Y381710D01*
X406311D01*
X405738Y383848D01*
X404576Y385862D01*
X402932Y387506D01*
X400918Y388668D01*
X398780Y389241D01*
D02*
G37*
G36*
X396240D02*
X394102Y388668D01*
X392088Y387506D01*
X390444Y385862D01*
X389282Y383848D01*
X388709Y381710D01*
X396240D01*
Y389241D01*
D02*
G37*
G36*
X264160Y384783D02*
Y377190D01*
X271753D01*
X271174Y379351D01*
X270004Y381379D01*
X268349Y383034D01*
X266321Y384204D01*
X264160Y384783D01*
D02*
G37*
G36*
X261620D02*
X259459Y384204D01*
X257431Y383034D01*
X255776Y381379D01*
X254606Y379351D01*
X254027Y377190D01*
X261620D01*
Y384783D01*
D02*
G37*
G36*
X406311Y379170D02*
X398780D01*
Y371639D01*
X400918Y372212D01*
X402932Y373374D01*
X404576Y375018D01*
X405738Y377032D01*
X406311Y379170D01*
D02*
G37*
G36*
X396240D02*
X388709D01*
X389282Y377032D01*
X390444Y375018D01*
X392088Y373374D01*
X394102Y372212D01*
X396240Y371639D01*
Y379170D01*
D02*
G37*
G36*
X271753Y374650D02*
X264160D01*
Y367057D01*
X266321Y367636D01*
X268349Y368806D01*
X270004Y370461D01*
X271174Y372489D01*
X271753Y374650D01*
D02*
G37*
G36*
X261620D02*
X254027D01*
X254606Y372489D01*
X255776Y370461D01*
X257431Y368806D01*
X259459Y367636D01*
X261620Y367057D01*
Y374650D01*
D02*
G37*
G36*
X304911Y340420D02*
X304800D01*
Y331200D01*
X314020D01*
Y331311D01*
X313305Y333979D01*
X311924Y336371D01*
X309971Y338324D01*
X307579Y339705D01*
X304911Y340420D01*
D02*
G37*
G36*
X302260D02*
X302149D01*
X299481Y339705D01*
X297089Y338324D01*
X295136Y336371D01*
X293755Y333979D01*
X293040Y331311D01*
Y331200D01*
X302260D01*
Y340420D01*
D02*
G37*
G36*
X314020Y328660D02*
X304800D01*
Y319440D01*
X304911D01*
X307579Y320155D01*
X309971Y321536D01*
X311924Y323489D01*
X313305Y325881D01*
X314020Y328549D01*
Y328660D01*
D02*
G37*
G36*
X302260D02*
X293040D01*
Y328549D01*
X293755Y325881D01*
X295136Y323489D01*
X297089Y321536D01*
X299481Y320155D01*
X302149Y319440D01*
X302260D01*
Y328660D01*
D02*
G37*
G36*
X232410Y218413D02*
Y210820D01*
X240003D01*
X239424Y212981D01*
X238254Y215009D01*
X236599Y216664D01*
X234571Y217834D01*
X232410Y218413D01*
D02*
G37*
G36*
X229870D02*
X227709Y217834D01*
X225681Y216664D01*
X224026Y215009D01*
X222856Y212981D01*
X222277Y210820D01*
X229870D01*
Y218413D01*
D02*
G37*
G36*
X197001Y220110D02*
X196850D01*
Y210590D01*
X206370D01*
Y210740D01*
X205635Y213485D01*
X204214Y215945D01*
X202205Y217954D01*
X199745Y219375D01*
X197001Y220110D01*
D02*
G37*
G36*
X194310D02*
X194160D01*
X191415Y219375D01*
X188955Y217954D01*
X186946Y215945D01*
X185525Y213485D01*
X184790Y210740D01*
Y210590D01*
X194310D01*
Y220110D01*
D02*
G37*
G36*
X63650Y219880D02*
X63500D01*
Y210360D01*
X73020D01*
Y210510D01*
X72285Y213255D01*
X70864Y215715D01*
X68855Y217724D01*
X66395Y219144D01*
X63650Y219880D01*
D02*
G37*
G36*
X60960D02*
X60809D01*
X58065Y219144D01*
X55605Y217724D01*
X53596Y215715D01*
X52175Y213255D01*
X51440Y210510D01*
Y210360D01*
X60960D01*
Y219880D01*
D02*
G37*
G36*
X240003Y208280D02*
X232410D01*
Y200687D01*
X234571Y201266D01*
X236599Y202436D01*
X238254Y204091D01*
X239424Y206119D01*
X240003Y208280D01*
D02*
G37*
G36*
X229870D02*
X222277D01*
X222856Y206119D01*
X224026Y204091D01*
X225681Y202436D01*
X227709Y201266D01*
X229870Y200687D01*
Y208280D01*
D02*
G37*
G36*
X206370Y208050D02*
X196850D01*
Y198530D01*
X197001D01*
X199745Y199265D01*
X202205Y200686D01*
X204214Y202695D01*
X205635Y205155D01*
X206370Y207899D01*
Y208050D01*
D02*
G37*
G36*
X194310D02*
X184790D01*
Y207899D01*
X185525Y205155D01*
X186946Y202695D01*
X188955Y200686D01*
X191415Y199265D01*
X194160Y198530D01*
X194310D01*
Y208050D01*
D02*
G37*
G36*
X73020Y207820D02*
X63500D01*
Y198300D01*
X63650D01*
X66395Y199035D01*
X68855Y200456D01*
X70864Y202465D01*
X72285Y204925D01*
X73020Y207669D01*
Y207820D01*
D02*
G37*
G36*
X60960D02*
X51440D01*
Y207669D01*
X52175Y204925D01*
X53596Y202465D01*
X55605Y200456D01*
X58065Y199035D01*
X60809Y198300D01*
X60960D01*
Y207820D01*
D02*
G37*
G36*
X570670Y378678D02*
X505770D01*
X503819Y378290D01*
X502165Y377185D01*
X501060Y375531D01*
X500672Y373580D01*
Y196680D01*
X501060Y194729D01*
X502165Y193075D01*
X503819Y191970D01*
X505770Y191582D01*
X570670D01*
X572621Y191970D01*
X574275Y193075D01*
X575380Y194729D01*
X575768Y196680D01*
Y373580D01*
X575380Y375531D01*
X574275Y377185D01*
X572621Y378290D01*
X570670Y378678D01*
D02*
G37*
G36*
X127000Y194893D02*
Y187300D01*
X134593D01*
X134014Y189461D01*
X132844Y191489D01*
X131189Y193144D01*
X129161Y194314D01*
X127000Y194893D01*
D02*
G37*
G36*
X124460D02*
X122299Y194314D01*
X120271Y193144D01*
X118616Y191489D01*
X117446Y189461D01*
X116867Y187300D01*
X124460D01*
Y194893D01*
D02*
G37*
G36*
X359410Y153643D02*
Y146050D01*
X367003D01*
X366424Y148211D01*
X365254Y150239D01*
X363599Y151894D01*
X361571Y153064D01*
X359410Y153643D01*
D02*
G37*
G36*
X356870D02*
X354709Y153064D01*
X352681Y151894D01*
X351026Y150239D01*
X349856Y148211D01*
X349277Y146050D01*
X356870D01*
Y153643D01*
D02*
G37*
G36*
X249164Y146120D02*
X246136D01*
X243211Y145336D01*
X242993Y145211D01*
X216418D01*
X213584Y145970D01*
X210596D01*
X207709Y145197D01*
X205121Y143702D01*
X203008Y141589D01*
X201514Y139001D01*
X200740Y136114D01*
Y133126D01*
X201514Y130239D01*
X203008Y127651D01*
X205121Y125538D01*
X207709Y124044D01*
X210596Y123270D01*
X213584D01*
X216418Y124029D01*
X242993D01*
X243211Y123904D01*
X246136Y123120D01*
X249164D01*
X252089Y123904D01*
X254711Y125418D01*
X256852Y127559D01*
X258366Y130181D01*
X259150Y133106D01*
Y136134D01*
X258366Y139059D01*
X256852Y141681D01*
X254711Y143822D01*
X252089Y145336D01*
X249164Y146120D01*
D02*
G37*
G36*
X997240Y182180D02*
X993300D01*
X989436Y181411D01*
X985797Y179904D01*
X982521Y177715D01*
X979735Y174929D01*
X977546Y171654D01*
X976039Y168014D01*
X975270Y164150D01*
Y160210D01*
X976039Y156346D01*
X977546Y152706D01*
X979735Y149431D01*
X982521Y146645D01*
X985797Y144456D01*
X989436Y142949D01*
X993300Y142180D01*
X997240D01*
X1001104Y142949D01*
X1004744Y144456D01*
X1008019Y146645D01*
X1010805Y149431D01*
X1012994Y152706D01*
X1014501Y156346D01*
X1015270Y160210D01*
Y164150D01*
X1014501Y168014D01*
X1012994Y171654D01*
X1010805Y174929D01*
X1008019Y177715D01*
X1004744Y179904D01*
X1001104Y181411D01*
X997240Y182180D01*
D02*
G37*
G36*
X367003Y143510D02*
X359410D01*
Y135917D01*
X361571Y136496D01*
X363599Y137666D01*
X365254Y139321D01*
X366424Y141349D01*
X367003Y143510D01*
D02*
G37*
G36*
X356870D02*
X349277D01*
X349856Y141349D01*
X351026Y139321D01*
X352681Y137666D01*
X354709Y136496D01*
X356870Y135917D01*
Y143510D01*
D02*
G37*
G36*
X400050Y131431D02*
Y123900D01*
X407581D01*
X407008Y126038D01*
X405846Y128052D01*
X404202Y129696D01*
X402188Y130858D01*
X400050Y131431D01*
D02*
G37*
G36*
X397510D02*
X395372Y130858D01*
X393358Y129696D01*
X391714Y128052D01*
X390552Y126038D01*
X389979Y123900D01*
X397510D01*
Y131431D01*
D02*
G37*
G36*
X407581Y121360D02*
X400050D01*
Y113829D01*
X402188Y114402D01*
X404202Y115564D01*
X405846Y117208D01*
X407008Y119222D01*
X407581Y121360D01*
D02*
G37*
G36*
X397510D02*
X389979D01*
X390552Y119222D01*
X391714Y117208D01*
X393358Y115564D01*
X395372Y114402D01*
X397510Y113829D01*
Y121360D01*
D02*
G37*
G36*
X73455Y122044D02*
X69850D01*
Y110960D01*
X80934D01*
Y114565D01*
X80679Y116501D01*
X79932Y118304D01*
X78743Y119853D01*
X77194Y121042D01*
X75391Y121789D01*
X73455Y122044D01*
D02*
G37*
G36*
X67310D02*
X63705D01*
X61769Y121789D01*
X59966Y121042D01*
X58417Y119853D01*
X57228Y118304D01*
X56481Y116501D01*
X56226Y114565D01*
Y110960D01*
X67310D01*
Y122044D01*
D02*
G37*
G36*
X140970Y116813D02*
Y109220D01*
X148563D01*
X147984Y111381D01*
X146814Y113409D01*
X145159Y115064D01*
X143131Y116234D01*
X140970Y116813D01*
D02*
G37*
G36*
X138430D02*
X136269Y116234D01*
X134241Y115064D01*
X132586Y113409D01*
X131416Y111381D01*
X130837Y109220D01*
X138430D01*
Y116813D01*
D02*
G37*
G36*
X148563Y106680D02*
X140970D01*
Y99087D01*
X143131Y99666D01*
X145159Y100836D01*
X146814Y102491D01*
X147984Y104519D01*
X148563Y106680D01*
D02*
G37*
G36*
X138430D02*
X130837D01*
X131416Y104519D01*
X132586Y102491D01*
X134241Y100836D01*
X136269Y99666D01*
X138430Y99087D01*
Y106680D01*
D02*
G37*
G36*
X80934Y108420D02*
X69850D01*
Y97336D01*
X73455D01*
X75391Y97591D01*
X77194Y98338D01*
X78743Y99527D01*
X79932Y101075D01*
X80679Y102879D01*
X80934Y104815D01*
Y108420D01*
D02*
G37*
G36*
X67310D02*
X56226D01*
Y104815D01*
X56481Y102879D01*
X57228Y101075D01*
X58417Y99527D01*
X59966Y98338D01*
X61769Y97591D01*
X63705Y97336D01*
X67310D01*
Y108420D01*
D02*
G37*
G36*
X70033Y74440D02*
X67127D01*
X64278Y73873D01*
X61593Y72761D01*
X59177Y71147D01*
X57123Y69093D01*
X55509Y66677D01*
X54397Y63992D01*
X53830Y61143D01*
Y58237D01*
X54397Y55388D01*
X55509Y52703D01*
X57123Y50287D01*
X59177Y48233D01*
X61593Y46619D01*
X64278Y45507D01*
X67127Y44940D01*
X70033D01*
X72882Y45507D01*
X75567Y46619D01*
X77983Y48233D01*
X79223Y49473D01*
X240333D01*
X240589Y49218D01*
X243211Y47704D01*
X246136Y46920D01*
X249164D01*
X252089Y47704D01*
X254711Y49218D01*
X256852Y51359D01*
X258366Y53981D01*
X259150Y56906D01*
Y59934D01*
X258366Y62859D01*
X256852Y65481D01*
X254711Y67622D01*
X252089Y69136D01*
X249164Y69920D01*
X246136D01*
X243211Y69136D01*
X242346Y68637D01*
X80342D01*
X80037Y69093D01*
X77983Y71147D01*
X75567Y72761D01*
X72882Y73873D01*
X70033Y74440D01*
D02*
G37*
%LPD*%
G36*
X686587Y485085D02*
X686609Y484255D01*
X685267Y480748D01*
X683515Y480278D01*
X680665Y478633D01*
X678337Y476305D01*
X677949Y475633D01*
X673331D01*
X672943Y476305D01*
X670615Y478633D01*
X667765Y480278D01*
X664586Y481130D01*
X661294D01*
X658115Y480278D01*
X655265Y478633D01*
X652937Y476305D01*
X652549Y475633D01*
X647931D01*
X647542Y476305D01*
X645215Y478633D01*
X642365Y480278D01*
X639186Y481130D01*
X635894D01*
X632715Y480278D01*
X629865Y478633D01*
X627537Y476305D01*
X627149Y475633D01*
X622531D01*
X622142Y476305D01*
X619815Y478633D01*
X616965Y480278D01*
X613786Y481130D01*
X610494D01*
X607315Y480278D01*
X604465Y478633D01*
X602137Y476305D01*
X601749Y475633D01*
X597915D01*
X594940Y478725D01*
Y506515D01*
X594979Y506538D01*
X597092Y508651D01*
X598587Y511239D01*
X599360Y514126D01*
Y517114D01*
X598587Y520001D01*
X597092Y522589D01*
X594979Y524702D01*
X592391Y526197D01*
X589504Y526970D01*
X586516D01*
X583629Y526197D01*
X581041Y524702D01*
X578928Y522589D01*
X577434Y520001D01*
X576660Y517114D01*
Y514126D01*
X577434Y511239D01*
X578928Y508651D01*
X579810Y507768D01*
Y479063D01*
X579065Y478633D01*
X576738Y476305D01*
X576349Y475633D01*
X571731D01*
X571343Y476305D01*
X569015Y478633D01*
X568270Y479063D01*
Y512848D01*
X569152Y513731D01*
X570647Y516319D01*
X571420Y519206D01*
Y522194D01*
X570647Y525081D01*
X569152Y527669D01*
X567039Y529782D01*
X565406Y530725D01*
X566478Y534725D01*
X636947D01*
X686587Y485085D01*
D02*
G37*
G36*
X906676Y453138D02*
X906723Y453076D01*
Y426480D01*
X900670D01*
X900487Y430404D01*
Y452759D01*
X904487Y454768D01*
X906676Y453138D01*
D02*
G37*
G36*
X879783Y459260D02*
X881323Y457699D01*
Y423542D01*
X880708Y423131D01*
X880245Y422668D01*
X877570Y421500D01*
X874895Y422668D01*
X874432Y423131D01*
X873070Y424041D01*
Y458197D01*
X873815Y458628D01*
X874428Y459241D01*
X879286Y459491D01*
X879783Y459260D01*
D02*
G37*
G36*
X857940Y458535D02*
Y424846D01*
X857765Y424773D01*
X855308Y423131D01*
X854845Y422668D01*
X852170Y421500D01*
X849495Y422668D01*
X849032Y423131D01*
X847670Y424041D01*
Y458197D01*
X848415Y458628D01*
X850742Y460955D01*
X851131Y461627D01*
X854966D01*
X857940Y458535D01*
D02*
G37*
G36*
X832540D02*
Y424846D01*
X832365Y424773D01*
X829908Y423131D01*
X829445Y422668D01*
X826770Y421500D01*
X824095Y422668D01*
X823632Y423131D01*
X822270Y424041D01*
Y458197D01*
X823015Y458628D01*
X825342Y460955D01*
X825731Y461627D01*
X829566D01*
X832540Y458535D01*
D02*
G37*
G36*
X807140D02*
Y424846D01*
X806965Y424773D01*
X804508Y423131D01*
X804045Y422668D01*
X801370Y421500D01*
X798695Y422668D01*
X798232Y423131D01*
X796870Y424041D01*
Y458197D01*
X797615Y458628D01*
X799942Y460955D01*
X800331Y461627D01*
X804165D01*
X807140Y458535D01*
D02*
G37*
G36*
X781740D02*
Y424846D01*
X781565Y424773D01*
X779108Y423131D01*
X778645Y422668D01*
X775970Y421500D01*
X773295Y422668D01*
X772832Y423131D01*
X771470Y424041D01*
Y458197D01*
X772215Y458628D01*
X774542Y460955D01*
X774931Y461627D01*
X778765D01*
X781740Y458535D01*
D02*
G37*
G36*
X756340D02*
Y424846D01*
X756165Y424773D01*
X753708Y423131D01*
X753245Y422668D01*
X750570Y421500D01*
X747895Y422668D01*
X747432Y423131D01*
X746070Y424041D01*
Y458197D01*
X746815Y458628D01*
X749143Y460955D01*
X749531Y461627D01*
X753365D01*
X756340Y458535D01*
D02*
G37*
G36*
X730940D02*
Y424846D01*
X730765Y424773D01*
X728308Y423131D01*
X727845Y422668D01*
X725170Y421500D01*
X722495Y422668D01*
X722032Y423131D01*
X720670Y424041D01*
Y458197D01*
X721415Y458628D01*
X723743Y460955D01*
X724131Y461627D01*
X727965D01*
X730940Y458535D01*
D02*
G37*
G36*
X705540D02*
Y424846D01*
X705365Y424773D01*
X702908Y423131D01*
X702445Y422668D01*
X699770Y421500D01*
X697095Y422668D01*
X696632Y423131D01*
X695270Y424041D01*
Y458197D01*
X696015Y458628D01*
X698343Y460955D01*
X698731Y461627D01*
X702566D01*
X705540Y458535D01*
D02*
G37*
G36*
X680140D02*
Y424846D01*
X679965Y424773D01*
X677508Y423131D01*
X677045Y422668D01*
X674370Y421500D01*
X671695Y422668D01*
X671232Y423131D01*
X669870Y424041D01*
Y458197D01*
X670615Y458628D01*
X672943Y460955D01*
X673331Y461627D01*
X677166D01*
X680140Y458535D01*
D02*
G37*
G36*
X654740D02*
Y424846D01*
X654565Y424773D01*
X652108Y423131D01*
X651645Y422668D01*
X648970Y421500D01*
X646295Y422668D01*
X645832Y423131D01*
X644470Y424041D01*
Y458197D01*
X645215Y458628D01*
X647542Y460955D01*
X647931Y461627D01*
X651766D01*
X654740Y458535D01*
D02*
G37*
G36*
X629340D02*
Y424846D01*
X629165Y424773D01*
X626708Y423131D01*
X626245Y422668D01*
X623570Y421500D01*
X620895Y422668D01*
X620432Y423131D01*
X619070Y424041D01*
Y458197D01*
X619815Y458628D01*
X622142Y460955D01*
X622531Y461627D01*
X626366D01*
X629340Y458535D01*
D02*
G37*
G36*
X603940D02*
Y424846D01*
X603765Y424773D01*
X601308Y423131D01*
X600845Y422668D01*
X598170Y421500D01*
X595495Y422668D01*
X595032Y423131D01*
X593670Y424041D01*
Y458197D01*
X594415Y458628D01*
X596743Y460955D01*
X597131Y461627D01*
X600965D01*
X603940Y458535D01*
D02*
G37*
G36*
X578540D02*
Y424846D01*
X578365Y424773D01*
X575908Y423131D01*
X575445Y422668D01*
X572770Y421500D01*
X570095Y422668D01*
X569632Y423131D01*
X568270Y424041D01*
Y458197D01*
X569015Y458628D01*
X571343Y460955D01*
X571731Y461627D01*
X575565D01*
X578540Y458535D01*
D02*
G37*
G36*
X906088Y145188D02*
Y116656D01*
X902456Y115186D01*
X901773Y115363D01*
X899852Y117348D01*
Y145188D01*
X902970Y146997D01*
X906088Y145188D01*
D02*
G37*
G36*
X601288D02*
Y116656D01*
X597655Y115186D01*
X596973Y115363D01*
X595052Y117348D01*
Y145188D01*
X598170Y146997D01*
X601288Y145188D01*
D02*
G37*
G36*
X626245Y146292D02*
X626708Y145829D01*
X628705Y144494D01*
Y116746D01*
X628595Y116683D01*
X627299Y115387D01*
X623134Y115166D01*
X622373Y115363D01*
X620452Y117348D01*
Y145371D01*
X623832Y147346D01*
X626245Y146292D01*
D02*
G37*
G36*
X854845D02*
X855308Y145829D01*
X857305Y144494D01*
Y116746D01*
X857195Y116683D01*
X854867Y114355D01*
X854479Y113683D01*
X849861D01*
X849473Y114355D01*
X847145Y116683D01*
X847035Y116746D01*
Y144494D01*
X849032Y145829D01*
X849495Y146292D01*
X852170Y147460D01*
X854845Y146292D01*
D02*
G37*
G36*
X829445D02*
X829908Y145829D01*
X831905Y144494D01*
Y116746D01*
X831795Y116683D01*
X829467Y114355D01*
X829079Y113683D01*
X824461D01*
X824072Y114355D01*
X821745Y116683D01*
X821635Y116746D01*
Y144494D01*
X823632Y145829D01*
X824095Y146292D01*
X826770Y147460D01*
X829445Y146292D01*
D02*
G37*
G36*
X804045D02*
X804508Y145829D01*
X806505Y144494D01*
Y116746D01*
X806395Y116683D01*
X804068Y114355D01*
X803679Y113683D01*
X799061D01*
X798672Y114355D01*
X796345Y116683D01*
X796235Y116746D01*
Y144494D01*
X798232Y145829D01*
X798695Y146292D01*
X801370Y147460D01*
X804045Y146292D01*
D02*
G37*
G36*
X778645D02*
X779108Y145829D01*
X781105Y144494D01*
Y116746D01*
X780995Y116683D01*
X778668Y114355D01*
X778279Y113683D01*
X773661D01*
X773272Y114355D01*
X770945Y116683D01*
X770835Y116746D01*
Y144494D01*
X772832Y145829D01*
X773295Y146292D01*
X775970Y147460D01*
X778645Y146292D01*
D02*
G37*
G36*
X753245D02*
X753708Y145829D01*
X755705Y144494D01*
Y116746D01*
X755595Y116683D01*
X753268Y114355D01*
X752879Y113683D01*
X748261D01*
X747872Y114355D01*
X745545Y116683D01*
X745435Y116746D01*
Y144494D01*
X747432Y145829D01*
X747895Y146292D01*
X750570Y147460D01*
X753245Y146292D01*
D02*
G37*
G36*
X727845D02*
X728308Y145829D01*
X730305Y144494D01*
Y116746D01*
X730195Y116683D01*
X727868Y114355D01*
X727479Y113683D01*
X722861D01*
X722473Y114355D01*
X720145Y116683D01*
X720035Y116746D01*
Y144494D01*
X722032Y145829D01*
X722495Y146292D01*
X725170Y147460D01*
X727845Y146292D01*
D02*
G37*
G36*
X702445D02*
X702908Y145829D01*
X704905Y144494D01*
Y116746D01*
X704795Y116683D01*
X702467Y114355D01*
X702079Y113683D01*
X697461D01*
X697073Y114355D01*
X694745Y116683D01*
X694635Y116746D01*
Y144494D01*
X696632Y145829D01*
X697095Y146292D01*
X699770Y147460D01*
X702445Y146292D01*
D02*
G37*
G36*
X677045D02*
X677508Y145829D01*
X679505Y144494D01*
Y116746D01*
X679395Y116683D01*
X677067Y114355D01*
X676679Y113683D01*
X672061D01*
X671673Y114355D01*
X669345Y116683D01*
X669235Y116746D01*
Y144494D01*
X671232Y145829D01*
X671695Y146292D01*
X674370Y147460D01*
X677045Y146292D01*
D02*
G37*
G36*
X651645D02*
X652108Y145829D01*
X654105Y144494D01*
Y116746D01*
X653995Y116683D01*
X651667Y114355D01*
X651279Y113683D01*
X646661D01*
X646273Y114355D01*
X643945Y116683D01*
X643835Y116746D01*
Y144494D01*
X645832Y145829D01*
X646295Y146292D01*
X648970Y147460D01*
X651645Y146292D01*
D02*
G37*
G36*
X880688Y145371D02*
Y114776D01*
X880267Y114355D01*
X879879Y113683D01*
X875261D01*
X874873Y114355D01*
X872545Y116683D01*
X872435Y116746D01*
Y144494D01*
X874432Y145829D01*
X874895Y146292D01*
X877308Y147346D01*
X880688Y145371D01*
D02*
G37*
D38*
X287020Y163830D02*
X332740Y118110D01*
X27940Y200660D02*
X64770Y163830D01*
X287020D01*
X894080Y33020D02*
X915670Y54610D01*
X359410Y33020D02*
X894080D01*
X332740Y59690D02*
X359410Y33020D01*
X915670Y54610D02*
Y106680D01*
X97790Y486410D02*
Y514350D01*
X149860Y566420D02*
X294640D01*
X97790Y514350D02*
X149860Y566420D01*
X97790Y432030D02*
Y486410D01*
Y432030D02*
X195580Y334240D01*
X364590Y487680D02*
Y587440D01*
X317500Y634530D02*
X364590Y587440D01*
X450850Y674370D02*
X554990D01*
X332740Y59690D02*
Y118110D01*
X27940Y200660D02*
Y304800D01*
X62230Y339090D01*
X363510Y226330D02*
X398780Y191060D01*
X303530Y226330D02*
X363510D01*
X283448D02*
X303530D01*
X212090Y134620D02*
X247650D01*
X195580Y314198D02*
Y334240D01*
Y314198D02*
X283448Y226330D01*
X41910Y455930D02*
X72390Y486410D01*
X21590Y455930D02*
X41910D01*
X266700Y487680D02*
X313590D01*
X62230Y339090D02*
X118110D01*
X72390Y489008D02*
X81280Y497898D01*
Y634130D01*
X81480Y634330D02*
X317300D01*
X582930Y702310D02*
X772160D01*
X554990Y674370D02*
X582930Y702310D01*
D39*
X252730Y751840D02*
X367030D01*
X224790Y779780D02*
X252730Y751840D01*
X316686Y779780D02*
X319226Y777240D01*
X275590Y779780D02*
X316686D01*
X319226Y777240D02*
X321310D01*
X362040Y794930D02*
X363220Y793750D01*
X250190Y779780D02*
X265340Y794930D01*
X362040D01*
X739140Y468630D02*
Y494030D01*
X695960Y537210D02*
X739140Y494030D01*
X738505Y467995D02*
X739140Y468630D01*
X840105Y412115D02*
Y467995D01*
X839470Y411480D02*
X840105Y412115D01*
Y467995D02*
X840740Y468630D01*
X814705Y467995D02*
X815340Y468630D01*
X814705Y412115D02*
Y467995D01*
X814070Y411480D02*
X814705Y412115D01*
X788670Y411480D02*
X789305Y412115D01*
Y467995D02*
X789940Y468630D01*
X789305Y412115D02*
Y467995D01*
X763905Y412115D02*
Y467995D01*
X764540Y468630D01*
X763270Y411480D02*
X763905Y412115D01*
X738505D02*
Y467995D01*
X737870Y411480D02*
X738505Y412115D01*
X712470Y411480D02*
X713105Y412115D01*
Y467995D02*
X713740Y468630D01*
X713105Y412115D02*
Y467995D01*
X687705Y412115D02*
Y467995D01*
X687070Y411480D02*
X687705Y412115D01*
Y467995D02*
X688340Y468630D01*
X662305Y467995D02*
X662940Y468630D01*
X662305Y412115D02*
Y467995D01*
X661670Y411480D02*
X662305Y412115D01*
X636905D02*
Y467995D01*
X637540Y468630D01*
X636270Y411480D02*
X636905Y412115D01*
X611505Y467995D02*
X612140Y468630D01*
X611505Y412115D02*
Y467995D01*
X610870Y411480D02*
X611505Y412115D01*
X586105D02*
Y467995D01*
X586740Y468630D01*
X585470Y411480D02*
X586105Y412115D01*
X560070Y411480D02*
X560705Y412115D01*
Y467995D02*
X561340Y468630D01*
X560705Y412115D02*
Y467995D01*
X864870Y411480D02*
X865505Y412115D01*
Y467995D02*
X866140Y468630D01*
X865505Y412115D02*
Y467995D01*
X864870Y106680D02*
Y157480D01*
X839470Y106680D02*
Y157480D01*
X814070Y106680D02*
Y157480D01*
X788670Y106680D02*
Y157480D01*
X763270Y106680D02*
Y157480D01*
X737870Y106680D02*
Y157480D01*
X712470Y106680D02*
Y157480D01*
X687070Y106680D02*
Y157480D01*
X661670Y106680D02*
Y157480D01*
X636270Y106680D02*
Y157480D01*
X587375Y469265D02*
Y514985D01*
X560705Y469265D02*
Y520065D01*
X467360Y542290D02*
X640080D01*
X713740Y468630D01*
X555625Y469265D02*
X556260Y468630D01*
X627380Y626110D02*
X772160D01*
X650240Y651510D02*
X772160D01*
D40*
X256540Y722630D02*
X359410D01*
X199390Y779780D02*
X256540Y722630D01*
X610870Y106680D02*
Y157480D01*
X585470Y106680D02*
Y157480D01*
X560070Y106680D02*
Y157480D01*
X399060Y52350D02*
X442950D01*
X443230Y52070D01*
X442229D02*
X443230D01*
X398780Y52630D02*
X399060Y52350D01*
X379170Y144780D02*
X398780Y125170D01*
X358140Y144780D02*
X379170D01*
X787400Y64770D02*
X852170D01*
X887270Y99870D01*
Y102056D02*
X890270Y105056D01*
X887270Y99870D02*
Y102056D01*
X890270Y105056D02*
Y159657D01*
X916305Y467995D02*
X916940Y468630D01*
X916305Y412115D02*
Y467995D01*
X915670Y411480D02*
X916305Y412115D01*
X890905Y467995D02*
X891540Y468630D01*
X890905Y412115D02*
Y467995D01*
X890270Y411480D02*
X890905Y412115D01*
X587375Y514985D02*
X588010Y515620D01*
X586740Y468630D02*
X587375Y469265D01*
X560705D02*
X561340Y468630D01*
X560070Y520700D02*
X560705Y520065D01*
X890270Y159657D02*
X957580Y226967D01*
Y463550D01*
X820420Y600710D02*
X957580Y463550D01*
X915670Y106680D02*
Y157480D01*
X85290Y186030D02*
X125730D01*
X62230Y209090D02*
X85290Y186030D01*
X263598Y369862D02*
Y375212D01*
Y369862D02*
X303530Y329930D01*
X262890Y375920D02*
X263598Y375212D01*
X317500Y684530D02*
X415290Y586740D01*
X339090Y487680D02*
Y530860D01*
Y438860D02*
Y487680D01*
X772160Y600710D02*
X820420D01*
X765377Y598170D02*
X766769Y599562D01*
X554990Y624370D02*
X581190Y598170D01*
X771012Y599562D02*
X772160Y600710D01*
X766769Y599562D02*
X771012D01*
X581190Y598170D02*
X765377D01*
X457670Y624370D02*
X554990D01*
X136959Y109690D02*
X138699Y107950D01*
X68580Y109690D02*
X136959D01*
X138699Y107950D02*
X139700D01*
X68580Y59690D02*
X69215Y59055D01*
X247015D02*
X247650Y58420D01*
X69215Y59055D02*
X247015D01*
X398763Y261078D02*
X398780Y261060D01*
X335822Y261078D02*
X398763D01*
X397510Y263299D02*
X398780Y262029D01*
Y261060D02*
Y262029D01*
X397510Y263299D02*
Y310440D01*
X126686Y470214D02*
Y482914D01*
Y470214D02*
X335822Y261078D01*
X123190Y486410D02*
X126686Y482914D01*
X347000Y329930D02*
X397510Y380440D01*
X339090Y438860D02*
X397510Y380440D01*
X195580Y209320D02*
X230910D01*
X231140Y209550D01*
X62345Y209205D02*
X195465D01*
X62230Y209090D02*
X62345Y209205D01*
X195465D02*
X195580Y209320D01*
X359410Y722630D02*
X457670Y624370D01*
X72390Y486410D02*
Y489008D01*
X317300Y634330D02*
X317500Y634530D01*
X81280Y634130D02*
X81480Y634330D01*
X81480Y684330D02*
X317300D01*
X317500Y684530D01*
X81280Y684130D02*
X81480Y684330D01*
X303530Y329930D02*
X347000D01*
D41*
X275590Y779780D02*
D03*
X199390D02*
D03*
X224790D02*
D03*
X250190D02*
D03*
D42*
X68580Y59690D02*
D03*
D43*
Y109690D02*
D03*
D44*
X995270Y407280D02*
D03*
Y162180D02*
D03*
X525770D02*
D03*
Y407280D02*
D03*
D45*
X560070Y157480D02*
D03*
X585470D02*
D03*
X610870D02*
D03*
X636270D02*
D03*
X661670D02*
D03*
X687070D02*
D03*
X712470D02*
D03*
X737870D02*
D03*
X763270D02*
D03*
X788670D02*
D03*
X814070D02*
D03*
X839470D02*
D03*
X864870D02*
D03*
X890270D02*
D03*
X915670D02*
D03*
X560070Y411480D02*
D03*
X585470D02*
D03*
X610870D02*
D03*
X636270D02*
D03*
X661670D02*
D03*
X687070D02*
D03*
X712470D02*
D03*
X737870D02*
D03*
X763270D02*
D03*
X788670D02*
D03*
X814070D02*
D03*
X839470D02*
D03*
X864870D02*
D03*
X890270D02*
D03*
D46*
X915670D02*
D03*
D47*
X916940Y468630D02*
D03*
X560070Y106680D02*
D03*
D48*
X891540Y468630D02*
D03*
X866140D02*
D03*
X840740D02*
D03*
X815340D02*
D03*
X789940D02*
D03*
X764540D02*
D03*
X739140D02*
D03*
X713740D02*
D03*
X688340D02*
D03*
X662940D02*
D03*
X637540D02*
D03*
X612140D02*
D03*
X586740D02*
D03*
X561340D02*
D03*
X991870Y676910D02*
D03*
Y651510D02*
D03*
Y626110D02*
D03*
Y600710D02*
D03*
Y575310D02*
D03*
X772160Y702310D02*
D03*
Y676910D02*
D03*
Y651510D02*
D03*
Y626110D02*
D03*
Y600710D02*
D03*
X915670Y106680D02*
D03*
X890270D02*
D03*
X864870D02*
D03*
X839470D02*
D03*
X814070D02*
D03*
X788670D02*
D03*
X763270D02*
D03*
X737870D02*
D03*
X712470D02*
D03*
X687070D02*
D03*
X661670D02*
D03*
X636270D02*
D03*
X610870D02*
D03*
X585470D02*
D03*
D49*
X313590Y487680D02*
D03*
X339090D02*
D03*
D50*
X364590D02*
D03*
D51*
X195580Y339320D02*
D03*
Y209320D02*
D03*
X62230Y209090D02*
D03*
Y339090D02*
D03*
D52*
X303530Y329930D02*
D03*
D53*
Y226330D02*
D03*
D54*
X247650Y134620D02*
D03*
Y58420D02*
D03*
D55*
X397510Y310440D02*
D03*
Y380440D02*
D03*
X398780Y191060D02*
D03*
Y261060D02*
D03*
Y122630D02*
D03*
Y52630D02*
D03*
D56*
X317500Y684530D02*
D03*
X81280Y684130D02*
D03*
X554990Y624370D02*
D03*
D57*
X317500Y634530D02*
D03*
X81280Y634130D02*
D03*
X554990Y674370D02*
D03*
D58*
X991870Y702310D02*
D03*
X772160Y727710D02*
D03*
D59*
X123190Y486410D02*
D03*
D60*
X97790D02*
D03*
X72390D02*
D03*
D61*
X321310Y777240D02*
D03*
X363220Y793750D02*
D03*
X443230Y52070D02*
D03*
X358140Y144780D02*
D03*
X787400Y64770D02*
D03*
X588010Y515620D02*
D03*
X560070Y520700D02*
D03*
X695960Y537210D02*
D03*
X125730Y186030D02*
D03*
X415290Y586740D02*
D03*
X339090Y530860D02*
D03*
X450850Y674370D02*
D03*
X626110Y623570D02*
D03*
X467360Y542290D02*
D03*
X139700Y107950D02*
D03*
X262890Y375920D02*
D03*
X231140Y209550D02*
D03*
X212090Y134620D02*
D03*
X21590Y455930D02*
D03*
X294640Y566420D02*
D03*
X367030Y751840D02*
D03*
X650240Y651510D02*
D03*
X118110Y339090D02*
D03*
X265430Y485140D02*
D03*
M02*
