G04*
G04 #@! TF.GenerationSoftware,Altium Limited,Altium Designer,24.5.2 (23)*
G04*
G04 Layer_Color=32768*
%FSLAX44Y44*%
%MOMM*%
G71*
G04*
G04 #@! TF.SameCoordinates,6AB9B958-AD33-4624-B604-30B7BB5DF34D*
G04*
G04*
G04 #@! TF.FilePolarity,Positive*
G04*
G01*
G75*
%ADD62C,0.0500*%
D62*
X370000Y659530D02*
G03*
X370000Y659530I-52500J0D01*
G01*
X133780Y659130D02*
G03*
X133780Y659130I-52500J0D01*
G01*
X607490Y649370D02*
G03*
X607490Y649370I-52500J0D01*
G01*
X287490Y819780D02*
X464990D01*
X287490Y767280D02*
Y819780D01*
X187490Y767280D02*
X287490D01*
X187490D02*
Y819780D01*
X9990D02*
X187490D01*
X9990D02*
Y974780D01*
X464990D01*
Y819780D02*
Y974780D01*
X1017770Y139680D02*
Y429780D01*
X503270Y139680D02*
X1017770D01*
X503270D02*
Y429780D01*
X1017770D01*
X284590Y507580D02*
X393590D01*
X284590Y456620D02*
Y507580D01*
Y456620D02*
X393590D01*
Y507580D01*
X177580Y198570D02*
Y350070D01*
X213580D01*
Y198570D02*
Y350070D01*
X177580Y198570D02*
X213580D01*
X289155Y215880D02*
Y340380D01*
X317905D01*
Y215880D02*
Y340380D01*
X289155Y215880D02*
X317905D01*
X406310Y365440D02*
X409260D01*
X406310D02*
Y389240D01*
X388710D02*
X406310D01*
X388710Y365440D02*
Y389240D01*
X385760Y365440D02*
X388710D01*
X385760Y325440D02*
Y365440D01*
Y325440D02*
X388710D01*
Y301640D02*
Y325440D01*
Y301640D02*
X406310D01*
Y325440D01*
X409260D01*
Y365440D01*
X407580Y246060D02*
X410530D01*
X407580D02*
Y269860D01*
X389980D02*
X407580D01*
X389980Y246060D02*
Y269860D01*
X387030Y246060D02*
X389980D01*
X387030Y206060D02*
Y246060D01*
Y206060D02*
X389980D01*
Y182260D02*
Y206060D01*
Y182260D02*
X407580D01*
Y206060D01*
X410530D01*
Y246060D01*
X44230Y198340D02*
X80230D01*
Y349840D01*
X44230D02*
X80230D01*
X44230Y198340D02*
Y349840D01*
X152990Y455310D02*
Y507310D01*
X42590D02*
X152990D01*
X42590Y455310D02*
Y507310D01*
Y455310D02*
X152990D01*
X410530Y67630D02*
Y107630D01*
X407580Y67630D02*
X410530D01*
X407580Y43830D02*
Y67630D01*
X389980Y43830D02*
X407580D01*
X389980D02*
Y67630D01*
X387030D02*
X389980D01*
X387030D02*
Y107630D01*
X389980D01*
Y131430D01*
X407580D01*
Y107630D02*
Y131430D01*
Y107630D02*
X410530D01*
M02*
