G04*
G04 #@! TF.GenerationSoftware,Altium Limited,Altium Designer,24.5.2 (23)*
G04*
G04 Layer_Color=32768*
%FSLAX44Y44*%
%MOMM*%
G71*
G04*
G04 #@! TF.SameCoordinates,6AB9B958-AD33-4624-B604-30B7BB5DF34D*
G04*
G04*
G04 #@! TF.FilePolarity,Positive*
G04*
G01*
G75*
%ADD13C,0.1524*%
%ADD63C,0.1000*%
D13*
X245350Y76743D02*
X246317Y77227D01*
X247768Y78678D01*
Y68520D01*
X244728Y124677D02*
X241343D01*
X239650Y122984D01*
Y116213D01*
X241343Y114520D01*
X244728D01*
X246421Y116213D01*
Y122984D01*
X244728Y124677D01*
X249807Y114520D02*
Y124677D01*
X256578Y114520D01*
Y124677D01*
D63*
X99578Y28687D02*
X102076Y34688D01*
X99578Y28687D02*
X111578D01*
X109080Y34688D02*
X111578Y28687D01*
X57082Y134688D02*
X59580Y140689D01*
X47580D02*
X50078Y134688D01*
X47580Y140689D02*
X59580D01*
X57082Y134688D02*
X118580D01*
X28580D02*
X50080D01*
X28580Y34688D02*
Y134688D01*
X118580Y34688D02*
Y134688D01*
X109080Y34688D02*
X118580D01*
X28580D02*
X102080D01*
X228450Y47020D02*
Y146020D01*
Y47020D02*
X266850D01*
Y146020D01*
X228450D02*
X266850D01*
M02*
