G04*
G04 #@! TF.GenerationSoftware,Altium Limited,Altium Designer,24.5.2 (23)*
G04*
G04 Layer_Color=16711935*
%FSLAX44Y44*%
%MOMM*%
G71*
G04*
G04 #@! TF.SameCoordinates,6AB9B958-AD33-4624-B604-30B7BB5DF34D*
G04*
G04*
G04 #@! TF.FilePolarity,Positive*
G04*
G01*
G75*
%ADD10C,0.2000*%
%ADD11C,0.1270*%
D10*
X916670Y432980D02*
G03*
X916670Y432980I-1000J0D01*
G01*
X365590Y509630D02*
G03*
X365590Y509630I-1000J0D01*
G01*
X304530Y208380D02*
G03*
X304530Y208380I-1000J0D01*
G01*
X318500Y602030D02*
G03*
X318500Y602030I-1000J0D01*
G01*
X82280Y601630D02*
G03*
X82280Y601630I-1000J0D01*
G01*
X555990Y706870D02*
G03*
X555990Y706870I-1000J0D01*
G01*
X124190Y511810D02*
G03*
X124190Y511810I-1000J0D01*
G01*
D11*
X367500Y659530D02*
G03*
X367500Y659530I-50000J0D01*
G01*
X131280Y659130D02*
G03*
X131280Y659130I-50000J0D01*
G01*
X604990Y649370D02*
G03*
X604990Y649370I-50000J0D01*
G01*
X976370Y316590D02*
X1015270D01*
X976370Y249480D02*
Y316590D01*
Y249480D02*
X1015270D01*
X570670Y196680D02*
Y373580D01*
X505770Y196680D02*
X570670D01*
X696970D01*
Y373580D01*
X570670D02*
X696970D01*
X505770D02*
X570670D01*
X505770Y142180D02*
Y196680D01*
Y373580D01*
Y427280D01*
Y142180D02*
X1015270D01*
X505770Y427280D02*
X1015270D01*
Y142180D02*
Y249480D01*
Y316590D01*
Y427280D01*
X287090Y505080D02*
X391090D01*
X287090Y459080D02*
Y505080D01*
Y459080D02*
X391090D01*
Y505080D01*
X195580Y307820D02*
Y339320D01*
Y209320D02*
Y240820D01*
X180080D02*
Y307820D01*
X195580D01*
X211080D01*
Y240820D02*
Y307820D01*
X195580Y240820D02*
X211080D01*
X180080D02*
X195580D01*
X303530Y301280D02*
Y329930D01*
Y226330D02*
Y254980D01*
X291655D02*
X303530D01*
X315405D01*
Y301280D01*
X303530D02*
X315405D01*
X291655D02*
X303530D01*
X291655Y254980D02*
Y301280D01*
X397510Y316190D02*
Y327940D01*
Y362940D02*
Y374690D01*
Y362940D02*
X406760D01*
X388260D02*
X397510D01*
X388260Y327940D02*
Y362940D01*
Y327940D02*
X397510D01*
X406760D01*
Y362940D01*
X398780Y196810D02*
Y208560D01*
Y243560D02*
Y255310D01*
Y243560D02*
X408030D01*
X389530D02*
X398780D01*
X389530Y208560D02*
Y243560D01*
Y208560D02*
X398780D01*
X408030D01*
Y243560D01*
X46730Y240590D02*
X62230D01*
X77730D01*
Y307590D01*
X62230D02*
X77730D01*
X46730D02*
X62230D01*
X46730Y240590D02*
Y307590D01*
X62230Y209090D02*
Y240590D01*
Y307590D02*
Y339090D01*
X150490Y457810D02*
Y504810D01*
X45090D02*
X150490D01*
X45090Y457810D02*
Y504810D01*
Y457810D02*
X150490D01*
X408030Y70130D02*
Y105130D01*
X398780Y70130D02*
X408030D01*
X389530D02*
X398780D01*
X389530D02*
Y105130D01*
X398780D01*
X408030D01*
X398780D02*
Y116880D01*
Y58380D02*
Y70130D01*
M02*
